
<?xml version="1.0" encoding="UTF-8"?>
<svg width="192" height="192" viewBox="0 0 192 192" fill="none" xmlns="http://www.w3.org/2000/svg">
  <defs>
    <linearGradient id="backgroundGradientMaskable192" x1="0%" y1="0%" x2="100%" y2="100%">
      <stop offset="0%" style="stop-color:#007AFF;stop-opacity:1" />
      <stop offset="100%" style="stop-color:#0051D0;stop-opacity:1" />
    </linearGradient>
  </defs>
  
  <!-- Maskable Safe Zone Background (circle for adaptive icons) -->
  <circle cx="96" cy="96" r="96" fill="url(#backgroundGradientMaskable192)"/>
  
  <!-- Dumbbell Icon (scaled down for safe zone) -->
  <g transform="translate(96,96) scale(0.6)">
    <!-- Left Weight -->
    <rect x="-50" y="-20" width="20" height="40" rx="5" fill="white"/>
    <rect x="-53" y="-15" width="26" height="30" rx="6" fill="white"/>
    
    <!-- Handle -->
    <rect x="-26" y="-5" width="52" height="10" rx="5" fill="white"/>
    
    <!-- Right Weight -->
    <rect x="30" y="-20" width="20" height="40" rx="5" fill="white"/>
    <rect x="27" y="-15" width="26" height="30" rx="6" fill="white"/>
    
    <!-- Handle Grip Lines -->
    <rect x="-15" y="-2" width="2" height="4" rx="1" fill="#D0D0D0"/>
    <rect x="-8" y="-2" width="2" height="4" rx="1" fill="#D0D0D0"/>
    <rect x="0" y="-2" width="2" height="4" rx="1" fill="#D0D0D0"/>
    <rect x="8" y="-2" width="2" height="4" rx="1" fill="#D0D0D0"/>
    <rect x="15" y="-2" width="2" height="4" rx="1" fill="#D0D0D0"/>
  </g>
  
  <!-- Subtle highlight -->
  <circle cx="96" cy="70" r="25" fill="rgba(255,255,255,0.08)"/>
</svg>