<?xml version="1.0" encoding="UTF-8"?>
<svg width="512" height="512" viewBox="0 0 512 512" fill="none" xmlns="http://www.w3.org/2000/svg">
  <!-- Background Circle -->
  <circle cx="256" cy="256" r="256" fill="#007AFF"/>
  
  <!-- Gradient Overlay -->
  <defs>
    <linearGradient id="gradient" x1="0%" y1="0%" x2="100%" y2="100%">
      <stop offset="0%" style="stop-color:#007AFF;stop-opacity:1" />
      <stop offset="100%" style="stop-color:#0051D0;stop-opacity:1" />
    </linearGradient>
    <filter id="shadow" x="-50%" y="-50%" width="200%" height="200%">
      <feDropShadow dx="0" dy="4" stdDeviation="8" flood-color="rgba(0,0,0,0.3)"/>
    </filter>
  </defs>
  
  <circle cx="256" cy="256" r="256" fill="url(#gradient)"/>
  
  <!-- Dumbbell Icon -->
  <g transform="translate(256,256)" filter="url(#shadow)">
    <!-- Left Weight -->
    <rect x="-120" y="-40" width="40" height="80" rx="8" fill="white"/>
    <rect x="-90" y="-30" width="20" height="60" rx="4" fill="white"/>
    
    <!-- Bar -->
    <rect x="-70" y="-8" width="140" height="16" rx="8" fill="white"/>
    
    <!-- Center Grip -->
    <rect x="-30" y="-12" width="60" height="24" rx="4" fill="rgba(255,255,255,0.9)"/>
    <rect x="-25" y="-8" width="6" height="16" rx="3" fill="rgba(255,255,255,0.6)"/>
    <rect x="-10" y="-8" width="6" height="16" rx="3" fill="rgba(255,255,255,0.6)"/>
    <rect x="5" y="-8" width="6" height="16" rx="3" fill="rgba(255,255,255,0.6)"/>
    <rect x="20" y="-8" width="6" height="16" rx="3" fill="rgba(255,255,255,0.6)"/>
    
    <!-- Right Weight -->
    <rect x="80" y="-40" width="40" height="80" rx="8" fill="white"/>
    <rect x="70" y="-30" width="20" height="60" rx="4" fill="white"/>
  </g>
  
  <!-- Subtle Highlight -->
  <circle cx="256" cy="180" r="120" fill="rgba(255,255,255,0.1)"/>
</svg>