
<?xml version="1.0" encoding="UTF-8"?>
<svg width="152" height="152" viewBox="0 0 152 152" fill="none" xmlns="http://www.w3.org/2000/svg">
  <defs>
    <linearGradient id="backgroundGradient152" x1="0%" y1="0%" x2="100%" y2="100%">
      <stop offset="0%" style="stop-color:#007AFF;stop-opacity:1" />
      <stop offset="100%" style="stop-color:#0051D0;stop-opacity:1" />
    </linearGradient>
    <linearGradient id="dumbbellGradient152" x1="0%" y1="0%" x2="100%" y2="100%">
      <stop offset="0%" style="stop-color:#FFFFFF;stop-opacity:1" />
      <stop offset="100%" style="stop-color:#E8E8E8;stop-opacity:1" />
    </linearGradient>
  </defs>
  
  <!-- Background -->
  <rect width="152" height="152" rx="25" fill="url(#backgroundGradient152)"/>
  
  <!-- Dumbbell Icon -->
  <g transform="translate(76,76)">
    <!-- Left Weight -->
    <rect x="-47" y="-19" width="18" height="38" rx="4" fill="url(#dumbbellGradient152)"/>
    <rect x="-50" y="-14" width="24" height="28" rx="6" fill="url(#dumbbellGradient152)"/>
    
    <!-- Handle -->
    <rect x="-26" y="-4" width="52" height="8" rx="4" fill="url(#dumbbellGradient152)"/>
    
    <!-- Right Weight -->
    <rect x="29" y="-19" width="18" height="38" rx="4" fill="url(#dumbbellGradient152)"/>
    <rect x="26" y="-14" width="24" height="28" rx="6" fill="url(#dumbbellGradient152)"/>
    
    <!-- Handle Grip Lines -->
    <rect x="-15" y="-1.5" width="1.5" height="3" rx="0.5" fill="#D0D0D0"/>
    <rect x="-8" y="-1.5" width="1.5" height="3" rx="0.5" fill="#D0D0D0"/>
    <rect x="0" y="-1.5" width="1.5" height="3" rx="0.5" fill="#D0D0D0"/>
    <rect x="8" y="-1.5" width="1.5" height="3" rx="0.5" fill="#D0D0D0"/>
    <rect x="15" y="-1.5" width="1.5" height="3" rx="0.5" fill="#D0D0D0"/>
  </g>
  
  <!-- Subtle shadow for depth -->
  <ellipse cx="76" cy="126" rx="30" ry="6" fill="rgba(0,0,0,0.1)"/>
</svg>